<?xml version="1.0" standalone="no"?>
<!DOCTYPE svg PUBLIC "-//W3C//DTD SVG 20010904//EN"
 "http://www.w3.org/TR/2001/REC-SVG-20010904/DTD/svg10.dtd">
<svg version="1.0" xmlns="http://www.w3.org/2000/svg"
 width="3404.000000pt" height="1040.000000pt" viewBox="0 0 3404.000000 1040.000000"
 preserveAspectRatio="xMidYMid meet">

<g transform="translate(0.000000,1040.000000) scale(0.100000,-0.100000)"
fill="#000000" stroke="none">
<path d="M13 7139 l3 -3254 22 -150 c81 -558 198 -943 422 -1394 324 -649 812
-1201 1420 -1606 582 -387 1203 -615 1905 -701 184 -22 569 -30 762 -15 87 7
160 14 161 16 2 2 -12 72 -32 157 -102 441 -152 847 -163 1308 -13 609 63
1099 227 1463 12 27 20 51 18 53 -3 2 -27 -3 -54 -11 -100 -29 -233 -47 -399
-52 -198 -6 -328 12 -518 73 -614 198 -961 638 -1027 1303 -6 66 -10 742 -10
1885 0 1741 0 1784 -20 1906 -81 496 -303 1005 -595 1365 -98 120 -286 302
-409 394 -415 312 -939 482 -1559 508 l-157 6 3 -3254z"/>
<path d="M8680 8954 c-371 -44 -631 -143 -878 -334 -453 -350 -729 -897 -826
-1640 -49 -374 -51 -879 -6 -1515 6 -77 21 -340 35 -585 14 -245 29 -519 35
-610 13 -214 13 -801 0 -1005 -51 -802 -212 -1474 -485 -2030 -165 -336 -376
-629 -587 -815 -91 -81 -86 -81 77 -8 416 187 876 508 1196 835 127 129 350
391 437 512 149 210 307 488 451 796 71 153 146 343 138 351 -1 2 -24 -25 -49
-60 -52 -70 -178 -213 -287 -326 l-73 -75 60 75 c252 319 419 670 506 1060 41
185 65 592 51 866 l-7 148 -23 -59 c-39 -105 -210 -423 -221 -412 -3 2 12 46
31 98 69 181 139 450 170 658 14 94 14 122 0 290 -15 180 -56 554 -75 676 -21
137 -56 633 -61 855 0 25 -2 41 -4 35 -2 -5 -15 -52 -30 -104 -39 -143 -198
-531 -212 -518 -4 5 106 403 197 712 55 187 59 209 64 335 21 459 113 893 255
1196 116 247 277 428 468 527 l86 44 -64 13 c-64 12 -304 21 -369 14z"/>
<path d="M16630 6956 c-497 -72 -907 -369 -1114 -806 -54 -114 -89 -219 -118
-354 -18 -84 -22 -134 -23 -301 0 -297 36 -461 155 -700 191 -383 556 -661
980 -749 417 -86 867 3 1192 234 106 76 277 249 344 350 56 83 128 209 123
214 -2 1 -157 42 -343 90 l-340 88 -35 -44 c-147 -180 -380 -288 -626 -288
-220 0 -398 70 -541 215 -89 89 -146 187 -185 320 -27 90 -37 312 -19 423 63
396 383 652 785 628 117 -7 192 -25 292 -71 85 -39 150 -83 215 -143 44 -41
48 -43 70 -29 13 8 171 54 353 102 181 47 331 88 333 90 7 6 -47 94 -104 170
-73 98 -244 261 -339 324 -155 102 -349 182 -533 221 -128 27 -389 35 -522 16z"/>
<path d="M10199 6897 c-29 -16 -52 -38 -69 -68 -24 -42 -25 -51 -25 -219 0
-194 3 -215 41 -260 54 -64 59 -64 394 -70 297 -5 306 -6 337 -28 17 -12 42
-39 55 -60 l23 -37 5 -980 c4 -716 8 -985 17 -1000 18 -32 55 -63 95 -80 46
-19 384 -22 439 -4 45 16 87 55 110 104 18 38 19 87 19 999 l0 958 22 40 c12
21 38 49 58 61 34 21 48 22 340 27 302 5 305 5 349 30 30 17 52 40 68 70 23
44 24 51 21 236 l-3 191 -28 36 c-16 21 -46 46 -67 57 -38 20 -61 20 -1098 20
l-1059 0 -44 -23z"/>
<path d="M12965 6906 c-37 -17 -80 -62 -94 -99 -8 -20 -11 -428 -11 -1308 0
-1236 1 -1281 19 -1317 10 -20 28 -45 39 -55 51 -46 45 -46 987 -46 842 -1
892 0 930 18 50 22 91 69 105 119 13 49 13 316 -1 365 -14 52 -72 114 -117
127 -23 6 -270 10 -659 10 l-623 0 0 250 0 250 540 0 540 0 0 300 0 300 -540
0 -540 0 0 230 0 230 603 0 c623 0 653 2 710 42 58 41 67 78 67 277 0 191 -5
219 -48 265 -55 58 -13 56 -984 56 -724 -1 -899 -3 -923 -14z"/>
<path d="M20571 6907 c-79 -26 -60 18 -638 -1432 -298 -748 -545 -1368 -549
-1377 -6 -17 15 -18 358 -18 l365 0 80 218 79 217 565 3 564 2 80 -220 80
-220 367 0 368 0 -17 43 c-271 685 -1088 2709 -1102 2727 -10 14 -33 34 -52
45 -31 18 -54 20 -274 22 -155 1 -252 -2 -274 -10z m319 -993 c27 -87 103
-300 169 -472 67 -172 121 -315 121 -317 0 -3 -153 -5 -340 -5 -187 0 -340 3
-340 7 0 3 58 164 129 357 71 193 136 378 145 411 27 98 58 187 62 182 3 -2
27 -76 54 -163z"/>
<path d="M22685 6901 c-90 -41 -105 -84 -105 -294 0 -177 7 -215 49 -260 59
-65 19 -62 763 -67 l676 -5 -100 -86 c-55 -48 -399 -401 -764 -785 l-664 -698
0 -248 c0 -271 3 -290 56 -340 16 -15 42 -32 57 -37 19 -8 363 -11 1084 -11
1056 0 1057 0 1101 21 26 13 54 38 70 62 26 39 27 46 30 207 5 226 -11 275
-100 321 -40 20 -50 21 -704 17 l-664 -3 129 130 c71 72 402 429 735 794 l606
663 0 249 c0 272 -3 291 -56 341 -16 15 -42 32 -57 37 -19 8 -356 11 -1065 11
-985 0 -1039 -1 -1077 -19z"/>
<path d="M25577 6910 c-48 -15 -94 -57 -112 -103 -15 -39 -16 -122 -12 -882 3
-815 4 -843 25 -939 86 -396 292 -680 607 -839 168 -84 357 -121 615 -121 397
0 650 90 883 314 176 168 286 384 343 670 15 75 18 185 21 929 3 627 1 852 -8
873 -16 40 -82 96 -121 103 -18 3 -121 5 -229 3 -193 -3 -196 -3 -236 -30 -82
-54 -77 2 -83 -928 -6 -805 -6 -827 -27 -901 -63 -222 -201 -355 -406 -389
-87 -15 -273 -8 -338 13 -193 62 -295 185 -351 422 -8 35 -13 299 -17 871 l-6
820 -27 41 c-46 70 -75 78 -298 80 -107 1 -208 -2 -223 -7z"/>
<path d="M29405 6905 c-22 -8 -52 -27 -66 -43 -18 -20 -201 -467 -569 -1388
-299 -748 -545 -1367 -548 -1376 -4 -17 18 -18 359 -18 l364 0 80 220 79 220
565 -2 564 -3 80 -217 80 -218 367 0 367 0 -552 1378 c-595 1486 -567 1425
-653 1450 -59 18 -465 15 -517 -3z m324 -995 c27 -91 104 -303 169 -472 66
-169 117 -310 114 -313 -11 -11 -672 -5 -672 6 0 5 56 162 124 347 68 185 138
386 155 445 36 122 50 162 55 156 2 -2 27 -78 55 -169z"/>
<path d="M31182 6898 c9 -13 252 -367 541 -788 l527 -765 0 -545 c0 -343 4
-559 10 -582 14 -50 55 -97 105 -119 34 -16 67 -19 225 -18 239 0 279 13 321
104 17 37 19 78 19 596 l0 555 545 787 c300 433 545 790 545 792 0 3 -171 5
-379 5 l-379 0 -311 -458 c-171 -253 -322 -469 -335 -481 l-24 -22 -28 36
c-16 21 -164 236 -330 479 l-300 441 -383 3 -383 2 14 -22z"/>
<path d="M5155 3232 c-137 -117 -205 -205 -280 -365 -139 -295 -205 -677 -205
-1182 0 -412 42 -800 130 -1205 32 -146 98 -390 109 -403 7 -7 161 165 276
308 85 105 209 294 249 378 81 171 141 428 171 737 l6 65 -26 -50 c-36 -68
-85 -132 -136 -180 -37 -35 -40 -36 -22 -10 103 152 163 382 163 626 0 122 -6
166 -47 384 l-27 140 -17 -88 c-19 -95 -62 -194 -104 -242 -20 -22 -25 -25
-20 -10 26 81 56 239 66 346 14 154 1 318 -37 461 -23 89 -113 288 -151 335
l-18 23 -80 -68z"/>
<path d="M10190 3220 c-20 -20 -20 -33 -20 -560 l0 -540 70 0 70 0 0 540 c0
527 0 540 -20 560 -11 11 -33 20 -50 20 -17 0 -39 -9 -50 -20z"/>
<path d="M10793 3230 c-53 -22 -53 -27 -53 -590 l0 -520 65 0 65 0 2 448 3
447 225 -447 225 -448 87 0 88 0 0 555 0 555 -70 0 -70 0 0 -447 0 -446 -214
432 c-117 238 -220 440 -229 448 -18 18 -93 26 -124 13z"/>
<path d="M12181 3229 c-103 -20 -186 -85 -230 -178 -35 -75 -37 -195 -4 -257
45 -84 102 -113 342 -170 192 -45 247 -72 273 -132 23 -51 21 -116 -6 -156
-46 -71 -160 -112 -281 -103 -115 9 -193 56 -230 137 l-18 40 -69 0 -68 0 6
-27 c34 -146 149 -240 322 -265 194 -27 404 48 461 164 32 66 44 148 32 213
-13 68 -30 101 -73 141 -52 50 -104 70 -284 114 -202 50 -236 63 -270 103 -23
28 -26 38 -22 92 7 118 74 168 223 169 79 1 97 -2 148 -27 48 -24 63 -38 88
-83 19 -32 40 -56 53 -60 32 -8 75 12 88 41 9 21 7 33 -12 76 -13 28 -40 64
-59 81 -90 80 -263 116 -410 87z"/>
<path d="M14372 3224 l-22 -15 0 -545 0 -544 70 0 70 0 -2 545 c-3 531 -3 545
-23 559 -26 20 -65 20 -93 0z"/>
<path d="M16162 3224 l-22 -15 0 -357 c0 -387 7 -449 55 -548 68 -139 252
-215 451 -185 187 28 286 118 331 298 14 57 17 128 17 426 l1 359 -25 20 c-26
21 -82 20 -104 -2 -7 -7 -13 -141 -16 -403 -5 -426 -5 -424 -65 -495 -103
-123 -362 -113 -447 16 -54 81 -58 114 -58 504 0 345 -1 359 -20 378 -24 24
-67 26 -98 4z"/>
<path d="M19015 3228 c-80 -15 -167 -62 -228 -124 -106 -107 -157 -247 -157
-433 1 -284 120 -467 349 -535 69 -20 236 -21 310 -1 230 61 371 273 371 560
0 291 -134 479 -378 531 -75 15 -192 17 -267 2z m300 -138 c159 -77 241 -281
202 -503 -28 -160 -99 -272 -205 -324 -52 -25 -67 -28 -162 -27 -157 1 -244
42 -311 145 -50 79 -71 159 -72 279 -2 195 51 319 171 402 69 47 114 58 227
55 81 -3 109 -8 150 -27z"/>
<path d="M20810 3220 c-19 -19 -20 -33 -20 -364 0 -387 8 -456 61 -557 57
-106 143 -160 288 -181 198 -28 378 47 450 187 49 96 54 138 58 522 l5 362
-26 25 c-28 29 -61 33 -93 11 -21 -15 -21 -21 -25 -387 -5 -416 -9 -440 -72
-515 -51 -58 -119 -85 -222 -86 -73 -1 -89 3 -141 29 -46 24 -64 40 -90 83
-17 29 -37 75 -42 103 -7 29 -11 190 -11 398 0 337 -1 351 -20 370 -11 11 -33
20 -50 20 -17 0 -39 -9 -50 -20z"/>
<path d="M22134 3230 c-55 -22 -54 -11 -54 -582 l0 -528 65 0 65 0 0 448 0
447 228 -447 227 -448 83 0 82 0 0 555 0 555 -65 0 -65 0 -1 -447 0 -448 -218
440 c-182 368 -222 442 -244 453 -32 14 -72 15 -103 2z"/>
<path d="M23292 3224 l-22 -15 0 -545 0 -544 65 0 65 0 0 544 0 545 -22 15
c-12 9 -32 16 -43 16 -11 0 -31 -7 -43 -16z"/>
<path d="M25940 2681 l0 -561 65 0 65 0 0 246 0 247 123 -5 c136 -5 171 -17
209 -70 21 -31 23 -45 28 -211 5 -175 6 -179 30 -199 28 -23 77 -18 98 9 14
20 17 335 2 397 -12 52 -38 86 -89 114 l-42 24 44 29 c87 57 122 138 115 263
-5 96 -28 147 -89 199 -72 62 -108 70 -346 75 l-213 4 0 -561z m420 416 c87
-46 118 -177 68 -277 -36 -71 -91 -93 -239 -98 l-119 -4 0 201 0 201 123 0
c110 0 129 -3 167 -23z"/>
<path d="M27260 3225 c-150 -42 -240 -158 -240 -309 0 -107 41 -176 131 -222
27 -13 124 -42 216 -65 239 -59 288 -86 303 -169 16 -90 -16 -150 -105 -195
-55 -27 -69 -30 -160 -30 -80 0 -109 5 -145 21 -54 25 -106 76 -122 121 -12
33 -12 33 -80 33 -59 0 -68 -2 -68 -18 0 -35 61 -140 102 -177 185 -168 586
-121 691 80 29 57 36 189 12 251 -23 61 -67 110 -126 139 -26 14 -123 43 -216
65 -212 51 -265 75 -288 132 -54 135 75 253 257 234 103 -10 162 -46 199 -119
25 -48 58 -64 97 -48 41 17 53 48 37 93 -25 73 -89 129 -193 169 -76 28 -225
35 -302 14z"/>
<path d="M28252 3224 l-22 -15 0 -545 0 -544 70 0 71 0 -3 541 -3 541 -24 19
c-28 23 -59 24 -89 3z"/>
<path d="M30419 3225 c-31 -17 -14 25 -244 -585 -101 -267 -187 -493 -190
-503 -7 -16 -1 -18 65 -15 l72 3 61 168 60 167 225 -2 225 -3 57 -165 58 -165
76 -3 c42 -2 76 -1 76 0 0 2 -87 244 -194 537 -110 303 -203 542 -214 554 -26
25 -98 32 -133 12z m145 -398 c47 -137 86 -250 86 -253 0 -2 -83 -4 -184 -4
l-183 0 83 228 c102 282 104 286 108 281 2 -2 42 -116 90 -252z"/>
<path d="M31360 2681 l0 -561 70 0 70 0 0 246 0 246 118 -4 c129 -4 165 -17
206 -71 19 -26 21 -45 26 -209 5 -176 5 -180 30 -200 17 -14 33 -18 54 -14 56
11 56 13 56 215 -1 239 -13 277 -103 323 l-38 19 48 32 c26 18 61 54 78 81 26
43 30 60 33 137 5 113 -13 170 -71 227 -76 74 -119 85 -364 90 l-213 4 0 -561z
m420 417 c69 -35 91 -83 88 -183 -2 -66 -7 -86 -27 -114 -39 -54 -98 -75 -228
-79 l-113 -4 0 201 0 201 118 0 c102 0 124 -3 162 -22z"/>
<path d="M32472 3224 l-22 -15 0 -545 0 -544 70 0 71 0 -3 541 -3 541 -24 19
c-28 23 -59 24 -89 3z"/>
<path d="M33410 3233 c-104 -17 -190 -64 -262 -142 -238 -257 -180 -773 102
-916 76 -38 155 -55 260 -55 161 0 254 34 353 129 115 109 167 249 167 445 0
134 -18 215 -67 308 -62 119 -164 192 -310 223 -63 14 -186 18 -243 8z m237
-128 c186 -55 289 -285 239 -535 -32 -155 -105 -265 -209 -311 -43 -19 -69
-23 -152 -23 -57 -1 -117 5 -140 13 -157 52 -245 203 -245 420 0 237 81 374
258 437 50 18 187 17 249 -1z"/>
<path d="M13110 3210 c-28 -28 -25 -64 6 -89 24 -19 40 -21 180 -21 l154 0 0
-490 0 -490 70 0 70 0 0 489 0 490 166 3 c150 3 167 5 180 22 19 27 18 70 -4
89 -17 15 -60 17 -410 17 -379 0 -393 -1 -412 -20z"/>
<path d="M14900 3210 c-27 -27 -25 -56 5 -85 24 -24 28 -25 180 -25 l155 0 0
-490 0 -490 70 0 70 0 0 490 0 490 153 0 c175 0 200 7 205 59 2 21 -3 40 -14
52 -16 18 -36 19 -411 19 -380 0 -394 -1 -413 -20z"/>
<path d="M17410 3210 c-24 -24 -25 -57 -4 -85 14 -18 29 -20 179 -23 l165 -3
0 -490 0 -489 70 0 70 0 0 489 0 490 166 3 c150 3 167 5 180 22 19 27 18 70
-4 89 -17 15 -60 17 -410 17 -379 0 -393 -1 -412 -20z"/>
<path d="M23806 3203 c4 -15 67 -264 139 -553 l131 -525 70 0 69 0 137 535
c75 294 137 543 137 553 1 14 -8 17 -63 17 l-64 0 -95 -383 c-101 -402 -113
-444 -125 -433 -4 4 -52 188 -108 409 l-100 402 -67 3 -68 3 7 -28z"/>
<path d="M24890 2675 l0 -555 325 0 325 0 0 60 0 60 -255 0 -255 0 0 195 0
195 223 2 222 3 3 58 3 57 -226 0 -225 0 0 175 0 175 250 0 250 0 0 65 0 65
-320 0 -320 0 0 -555z"/>
<path d="M28780 3210 c-24 -24 -25 -57 -4 -85 14 -18 29 -20 179 -23 l165 -3
0 -490 0 -489 70 0 70 0 0 489 0 490 166 3 c150 3 167 5 180 22 19 27 18 70
-4 89 -17 15 -60 17 -410 17 -379 0 -393 -1 -412 -20z"/>
</g>
</svg>
