<?xml version="1.0" standalone="no"?>
<!DOCTYPE svg PUBLIC "-//W3C//DTD SVG 20010904//EN"
 "http://www.w3.org/TR/2001/REC-SVG-20010904/DTD/svg10.dtd">
<svg version="1.0" xmlns="http://www.w3.org/2000/svg"
 width="2360.000000pt" height="1650.000000pt" viewBox="0 0 2360.000000 1650.000000"
 preserveAspectRatio="xMidYMid meet">

<g transform="translate(0.000000,1650.000000) scale(0.100000,-0.100000)"
fill="#000000" stroke="none">
<path d="M1 10278 c1 -3423 5 -6208 9 -6189 11 45 38 80 80 103 34 17 74 18
972 16 928 -3 937 -3 964 -24 65 -48 69 -61 72 -237 3 -152 2 -165 -20 -207
-42 -81 -53 -84 -365 -90 -256 -5 -273 -6 -300 -26 -15 -12 -37 -36 -48 -55
-19 -33 -20 -57 -25 -889 -6 -961 1 -889 -81 -930 -37 -20 -55 -21 -224 -18
-201 3 -210 6 -259 72 -21 27 -21 38 -26 884 -6 944 -2 894 -67 938 -25 17
-54 19 -293 24 -242 5 -268 7 -299 25 -42 25 -71 62 -81 106 -4 19 -8 -824 -9
-1873 l-1 -1908 11800 0 11800 0 0 8250 0 8250 -8242 -2 c-4534 0 -8169 -4
-8078 -8 731 -32 1353 -247 1840 -636 109 -87 317 -295 404 -404 297 -372 524
-857 635 -1356 59 -266 54 -63 61 -2404 7 -2367 2 -2209 69 -2474 141 -557
520 -956 1086 -1145 142 -47 338 -89 461 -97 170 -12 497 23 647 69 26 8 47
13 47 11 0 -3 -11 -26 -24 -52 -122 -243 -220 -673 -256 -1126 -13 -165 -13
-678 0 -866 30 -433 106 -927 195 -1270 13 -52 21 -98 17 -102 -18 -17 -353
-30 -627 -25 -401 7 -663 41 -1050 137 -1103 273 -2071 911 -2745 1812 -519
692 -826 1483 -936 2413 -17 141 -19 370 -21 3838 l-3 3687 -3540 0 -3540 0 1
-6222z m17346 4567 c43 -8 101 -15 128 -15 l50 -1 -89 -44 c-508 -256 -789
-909 -856 -1990 -11 -174 -13 -186 -65 -355 -75 -248 -237 -831 -232 -836 7
-7 124 244 172 371 26 66 62 174 80 240 l34 120 1 -130 c1 -280 26 -599 80
-1040 59 -479 83 -760 77 -890 -11 -196 -100 -571 -202 -845 -25 -68 -44 -124
-42 -126 11 -12 220 379 262 490 l22 58 6 -68 c16 -167 2 -709 -23 -920 -13
-107 -69 -333 -121 -486 -109 -321 -272 -619 -489 -893 l-71 -90 101 105 c124
128 249 271 320 365 43 56 52 64 46 40 -41 -165 -293 -689 -486 -1010 -144
-239 -253 -386 -481 -645 -352 -400 -691 -684 -1134 -948 -185 -110 -567 -302
-602 -302 -3 0 44 47 104 105 642 610 1056 1655 1177 2970 38 411 45 1081 16
1490 -6 77 -21 345 -35 595 -14 250 -34 588 -45 750 -61 916 -44 1470 61 1984
122 597 346 1046 698 1397 245 243 496 394 806 484 239 69 571 101 732 70z
m-4188 -6625 c109 -212 146 -376 145 -650 0 -196 -12 -285 -58 -452 -13 -49
-20 -88 -16 -88 13 0 68 84 95 144 24 53 54 180 56 233 1 39 35 -104 64 -275
42 -241 32 -517 -25 -722 -21 -74 -97 -242 -141 -310 l-23 -35 33 30 c45 41
124 141 167 212 l36 58 -6 -85 c-23 -299 -117 -672 -217 -860 -87 -162 -241
-370 -457 -615 -58 -66 -107 -122 -109 -124 -7 -10 -15 12 -57 160 -105 367
-185 844 -216 1289 -13 191 -13 601 1 771 33 423 114 760 245 1019 80 157 165
266 291 370 l98 81 23 -28 c12 -15 44 -71 71 -123z m-5503 -3985 c49 -9 135
-31 191 -50 201 -67 349 -158 493 -304 87 -87 220 -265 207 -277 -2 -3 -135
-39 -293 -80 -159 -42 -298 -81 -309 -89 -18 -11 -26 -7 -78 41 -70 65 -214
139 -312 159 -249 52 -504 -29 -654 -208 -55 -65 -118 -196 -136 -285 -19 -87
-19 -288 0 -377 57 -267 260 -455 534 -495 145 -22 279 -3 408 55 111 51 186
110 260 203 l18 23 295 -76 c162 -42 296 -78 298 -80 6 -6 -51 -110 -99 -181
-267 -396 -763 -603 -1267 -528 -547 81 -969 495 -1057 1037 -19 119 -19 346
0 467 67 412 335 767 708 940 101 47 224 85 332 104 110 20 351 20 461 1z
m-2756 -47 c72 -49 75 -60 75 -256 0 -169 -1 -178 -23 -210 -50 -69 -27 -67
-634 -70 l-548 -3 0 -199 0 -200 475 0 475 0 0 -260 0 -260 -475 0 -475 0 0
-220 0 -219 558 -3 c536 -3 558 -4 591 -23 71 -42 76 -57 79 -246 3 -160 2
-171 -19 -209 -15 -26 -37 -47 -64 -60 -40 -19 -62 -20 -826 -20 l-785 0 -44
23 c-87 44 -81 -59 -78 1227 l3 1135 22 31 c48 67 6 64 874 64 l786 0 33 -22z
m7395 3 c22 -10 47 -27 56 -37 10 -10 232 -554 494 -1209 262 -654 479 -1196
482 -1202 4 -10 -63 -13 -315 -13 l-320 0 -29 78 c-17 42 -49 130 -72 195
l-43 117 -492 -2 -491 -3 -70 -192 -70 -193 -318 0 c-299 0 -318 1 -313 18 3
9 219 550 480 1202 343 858 481 1193 500 1212 15 15 41 32 59 37 18 5 120 10
227 10 169 0 200 -2 235 -18z m3281 -7 c68 -50 69 -53 72 -302 l3 -227 -511
-560 c-282 -308 -572 -621 -646 -695 l-134 -135 594 0 c584 0 595 0 623 -21
15 -11 38 -40 51 -64 20 -40 22 -59 22 -185 0 -126 -2 -145 -22 -185 -13 -24
-36 -53 -51 -64 -28 -21 -38 -21 -964 -24 -921 -2 -937 -2 -978 18 -26 13 -49
34 -63 59 -21 37 -22 51 -22 257 l0 219 583 611 c320 336 620 645 666 685 l85
74 -590 5 c-566 5 -590 6 -623 25 -71 42 -76 57 -79 248 -3 197 4 224 74 264
l39 23 922 -3 c913 -2 922 -2 949 -23z m1024 4 c26 -14 53 -37 65 -58 19 -34
20 -56 25 -760 6 -789 5 -766 65 -898 91 -199 361 -291 619 -212 151 47 237
145 289 328 20 75 21 100 27 799 5 712 5 722 26 750 11 15 36 38 55 51 33 22
39 23 224 20 182 -3 191 -4 224 -27 63 -45 61 -21 61 -788 0 -755 -3 -810 -55
-987 -51 -174 -122 -300 -240 -425 -158 -166 -339 -254 -604 -292 -118 -17
-390 -6 -502 20 -417 96 -685 394 -766 852 -16 94 -18 170 -18 819 l0 715 23
37 c41 66 82 78 272 78 152 0 169 -2 210 -22z m3402 12 c20 -6 50 -23 65 -39
21 -21 144 -319 506 -1222 262 -657 477 -1197 477 -1202 0 -4 -143 -7 -317 -7
l-318 0 -70 193 -70 192 -491 3 -492 2 -52 -142 c-29 -79 -61 -167 -72 -195
l-19 -53 -318 0 -318 0 479 1203 c264 661 487 1211 496 1221 9 10 35 27 57 37
34 16 67 19 230 19 105 0 207 -5 227 -10z m2029 -389 c147 -217 278 -405 291
-418 l25 -24 39 53 c22 29 152 218 289 421 l249 367 334 0 c266 0 332 -3 325
-12 -6 -7 -222 -320 -482 -695 l-471 -681 0 -489 c0 -550 2 -535 -76 -581 -37
-21 -47 -22 -226 -20 -213 3 -224 7 -265 88 -23 44 -23 46 -23 528 l0 485
-470 683 c-258 376 -470 686 -470 689 0 3 149 4 332 3 l331 -3 268 -394z
m-21850 -2831 c18 -10 19 -26 19 -485 l0 -475 -65 0 -65 0 0 469 c0 414 2 471
16 485 18 18 66 21 95 6z m613 -12 c14 -13 114 -185 222 -383 107 -198 200
-364 205 -370 5 -5 9 145 9 378 l0 387 65 0 65 0 0 -480 0 -481 -87 3 -87 3
-211 377 c-115 207 -213 380 -217 384 -5 4 -8 -167 -8 -379 l0 -387 -65 0 -66
0 3 461 3 461 28 24 c38 33 106 33 141 2z m1479 7 c77 -20 129 -47 171 -91 61
-63 65 -123 9 -145 -42 -16 -69 -3 -98 47 -40 69 -110 98 -230 98 -100 0 -155
-20 -194 -70 -23 -30 -36 -83 -27 -117 15 -63 67 -85 329 -142 65 -13 140 -34
167 -46 58 -25 113 -81 130 -134 16 -47 9 -159 -13 -200 -51 -99 -200 -165
-374 -165 -218 0 -349 78 -397 238 -7 21 -5 22 57 22 l64 0 30 -49 c55 -88
191 -129 335 -102 123 24 187 87 175 173 -12 89 -53 113 -283 164 -254 56
-316 91 -344 188 -38 135 42 273 187 322 82 28 218 32 306 9z m1968 5 c18 -10
19 -26 19 -485 l0 -475 -65 0 -65 0 0 475 c0 441 1 475 18 484 22 13 68 14 93
1z m1741 -2 c15 -12 17 -52 20 -338 3 -314 4 -327 26 -376 48 -106 120 -148
252 -147 105 1 175 27 224 84 53 62 56 86 56 430 0 357 0 359 69 359 74 0 73
4 69 -362 -4 -277 -7 -331 -22 -378 -36 -110 -105 -181 -212 -216 -91 -29
-297 -27 -378 5 -81 32 -156 107 -187 186 -23 58 -24 71 -27 400 -3 315 -2
340 14 352 23 17 75 17 96 1z m2967 -3 c231 -55 355 -237 338 -498 -7 -117
-36 -202 -96 -280 -87 -116 -205 -174 -376 -184 -261 -15 -451 109 -510 333
-21 79 -21 228 0 301 49 171 160 283 325 327 72 19 238 20 319 1z m1554 3 c14
-12 16 -51 19 -343 4 -365 5 -374 71 -444 52 -55 108 -75 208 -74 129 1 205
40 252 128 21 38 22 56 27 376 6 371 5 369 68 369 72 0 72 2 72 -319 0 -157
-5 -315 -10 -351 -15 -94 -64 -186 -124 -231 -77 -58 -139 -74 -291 -74 -112
1 -138 4 -190 24 -80 32 -154 105 -186 186 -23 58 -24 69 -27 400 -3 314 -2
340 14 352 23 17 75 17 97 1z m1310 -10 c12 -13 112 -188 222 -390 l200 -367
3 385 2 384 65 0 65 0 0 -480 0 -480 -83 0 -83 0 -215 385 -214 385 -3 -385
-2 -385 -65 0 -65 0 0 460 0 461 25 24 c34 34 115 36 148 3z m1101 0 c14 -20
16 -83 16 -485 l0 -463 -70 0 -70 0 0 463 c0 522 -2 507 70 507 29 0 43 -6 54
-22z m2930 2 c121 -38 179 -116 178 -240 0 -36 -7 -81 -15 -100 -17 -37 -77
-100 -116 -120 l-25 -13 30 -15 c92 -46 104 -80 104 -286 0 -183 -1 -186 -69
-186 -55 0 -61 16 -61 173 0 223 -24 250 -227 256 l-123 3 0 -211 0 -211 -65
0 -65 0 0 485 0 485 194 0 c167 0 203 -3 260 -20z m1141 -8 c97 -36 175 -113
175 -173 0 -22 -7 -32 -31 -45 -44 -22 -73 -11 -103 40 -46 79 -174 120 -301
97 -67 -12 -99 -32 -132 -81 -42 -61 -23 -144 39 -173 43 -20 82 -30 265 -72
83 -18 169 -43 191 -54 105 -54 146 -167 107 -298 -27 -89 -125 -156 -269
-184 -113 -21 -278 -4 -359 37 -51 27 -110 88 -133 139 -35 73 -34 75 41 75
l65 0 19 -38 c24 -48 45 -66 106 -94 66 -30 214 -32 292 -5 92 32 139 112 113
191 -21 65 -80 93 -293 136 -257 52 -337 110 -337 246 0 131 80 230 220 270
71 21 251 13 325 -14z m749 6 c14 -20 16 -83 16 -485 l0 -463 -70 0 -70 0 0
463 c0 522 -2 507 70 507 29 0 43 -6 54 -22z m2141 1 c8 -8 100 -225 203 -482
l189 -467 -74 0 c-71 0 -74 1 -84 28 -5 15 -30 80 -55 145 l-46 117 -220 -2
-220 -3 -57 -142 -56 -143 -69 0 c-50 0 -67 3 -63 12 146 363 392 927 409 942
18 14 34 17 76 14 29 -3 60 -11 67 -19z m1240 0 c118 -36 175 -115 175 -243 0
-92 -38 -158 -119 -208 l-33 -21 28 -15 c47 -23 83 -63 94 -101 5 -20 10 -103
10 -185 0 -167 -7 -186 -64 -186 -59 0 -61 5 -66 172 -4 126 -9 159 -24 184
-34 57 -67 68 -203 72 l-123 4 0 -211 0 -211 -70 0 -70 0 0 485 0 485 199 0
c173 0 208 -3 266 -21z m719 -1 c14 -20 16 -83 16 -485 l0 -463 -70 0 -70 0 0
463 c0 522 -2 507 70 507 29 0 43 -6 54 -22z m1091 2 c93 -24 153 -57 210
-116 81 -85 117 -190 117 -341 0 -256 -141 -438 -379 -488 -296 -63 -546 75
-608 336 -66 283 74 545 328 614 79 21 239 19 332 -5z m-19197 -2 c15 -15 15
-61 0 -76 -8 -8 -60 -12 -170 -12 l-158 0 0 -430 0 -430 -75 0 -75 0 0 430 0
430 -158 0 c-169 0 -182 3 -182 50 0 14 5 31 12 38 17 17 789 17 806 0z m1740
0 c7 -7 12 -24 12 -38 0 -47 -13 -50 -182 -50 l-158 0 0 -430 0 -430 -75 0
-75 0 0 430 0 430 -158 0 c-169 0 -182 3 -182 50 0 14 5 31 12 38 17 17 789
17 806 0z m2444 -13 c8 -19 8 -31 0 -50 -11 -24 -12 -25 -174 -27 l-163 -3 -3
-427 -2 -428 -70 0 -70 0 0 430 0 430 -158 0 c-169 0 -182 3 -182 50 0 14 5
31 12 38 9 9 113 12 405 12 l393 0 12 -25z m5541 -22 c8 -27 52 -183 97 -348
46 -165 87 -304 92 -309 4 -5 10 -7 14 -4 3 4 49 163 102 355 l97 348 63 3
c34 2 62 -1 62 -5 1 -4 -59 -221 -132 -480 l-133 -473 -67 0 c-55 0 -68 3 -72
18 -32 108 -256 922 -256 931 0 7 22 11 60 11 l59 0 14 -47z m1537 -3 l0 -50
-245 0 -245 0 0 -155 0 -155 220 0 220 0 0 -55 0 -55 -220 0 -220 0 0 -170 0
-170 250 0 250 0 0 -50 0 -50 -315 0 -315 0 0 480 0 480 310 0 310 0 0 -50z
m3966 25 c14 -22 15 -30 4 -50 -13 -25 -14 -25 -177 -25 l-163 0 0 -430 0
-430 -70 0 -70 0 0 430 0 430 -165 0 -165 0 -12 25 c-8 19 -8 31 0 50 l12 25
395 0 395 0 16 -25z"/>
<path d="M12057 3474 c-3 -5 -23 -67 -45 -139 -22 -71 -85 -254 -141 -405 -55
-151 -101 -278 -101 -282 0 -4 133 -8 295 -8 162 0 295 3 295 7 0 3 -47 128
-104 277 -57 149 -124 336 -149 415 -24 79 -47 139 -50 135z"/>
<path d="M19780 3478 c-1 -26 -106 -338 -189 -563 -55 -148 -99 -271 -97 -272
2 -2 136 -2 298 -1 l296 3 -104 270 c-58 149 -123 331 -146 405 -37 122 -57
177 -58 158z"/>
<path d="M8675 877 c-109 -36 -177 -96 -224 -196 -24 -51 -26 -67 -26 -181 0
-116 2 -129 28 -185 39 -83 70 -121 129 -155 96 -54 275 -64 373 -21 133 59
216 230 202 417 -10 138 -83 249 -197 302 -45 21 -73 27 -150 29 -59 2 -110
-2 -135 -10z"/>
<path d="M15520 715 l0 -177 123 4 c138 4 187 22 223 81 29 48 26 152 -4 195
-40 55 -72 66 -214 70 l-128 4 0 -177z"/>
<path d="M19703 639 l-90 -224 89 -3 c48 -1 128 -1 177 0 l89 3 -79 205 c-43
113 -83 214 -87 224 -6 15 -30 -34 -99 -205z"/>
<path d="M20790 716 l0 -176 98 0 c168 0 240 36 261 132 19 82 -6 152 -66 190
-34 20 -53 23 -165 27 l-128 3 0 -176z"/>
<path d="M22635 877 c-136 -45 -220 -145 -246 -291 -26 -151 10 -287 100 -377
75 -75 130 -94 271 -94 92 0 112 3 160 26 74 35 115 79 159 169 35 74 36 77
36 200 0 114 -2 130 -26 180 -36 77 -78 121 -151 160 -57 30 -71 34 -163 37
-64 2 -114 -2 -140 -10z"/>
</g>
</svg>
